<svg width="591" height="529" viewBox="0 0 591 529" fill="none" xmlns="http://www.w3.org/2000/svg">
<path d="M281.515 -116.726C338.412 -162.265 396.603 -209.691 465.786 -233C479.17 -224.579 482.92 -206.256 491.196 -193.052C533.417 -113.56 563.417 -26.6571 576.542 63.3443C580.357 105.516 591.801 146.946 590.832 189.589C590.638 221.116 591.607 252.644 590.314 284.171C581.78 363.731 572.34 443.762 549.387 520.425C542.727 535.852 527.016 523.86 516.412 520.896C445.936 494.691 372.228 456.225 334.856 385.086C318.498 355.916 317.14 321.829 316.623 288.954C299.618 313.947 282.549 340.422 256.299 355.781C207.936 382.997 150.456 388.724 96.8555 379.09C64.5272 371.882 32.1343 365.415 0 357.466C25.798 257.157 71.2515 163.383 123.235 75.1334C165.844 3.05145 220.608 -60.8791 281.515 -116.726ZM341.904 39.4293C319.985 52.4984 294.446 52.4984 269.941 53.3741C283.325 71.8998 303.175 84.2953 315.136 104.034C332.335 131.923 341.775 164.731 340.869 198.01C360.396 183.795 372.357 160.891 393.306 148.495C419.104 130.913 450.074 124.243 480.592 124.782C461.777 104.707 437.208 89.4824 425.828 62.9401C412.573 38.6209 409.987 10.5966 408.241 -16.6868C384.513 0.0200653 368.672 27.1013 341.904 39.4293Z" fill="white" fillOpacity="0.5"/>
</svg>
